<?xml version="1.0" encoding="utf-8"?>
<!-- Generator: Adobe Illustrator 22.1.0, SVG Export Plug-In . SVG Version: 6.00 Build 0)  -->
<svg version="1.1" id="Ebene_1" xmlns="http://www.w3.org/2000/svg" xmlns:xlink="http://www.w3.org/1999/xlink" x="0px" y="0px"
	 viewBox="0 0 1463 938.9" style="enable-background:new 0 0 1463 938.9;" xml:space="preserve">
<style type="text/css">
	.st0{fill:none;stroke:#FFFFFF;stroke-width:4;stroke-miterlimit:10;}
	.st1{fill:none;stroke:#FFFFFF;stroke-miterlimit:10;}
</style>
<title>Bremen-Standort_Pfade</title>
<path class="st0" d="M93.3,279.6l-48.5,41.9c-15.1,13-21.9,33.2-17.7,52.7l41.2,192.4l70.5,88.5l-118,98c34.8,43.7,70.2,79,109,63
	c58-3.3,69.5,22.7,63,60l15,17l24-22l44,52l865-9l7,5c0,0,229-2,231-2s0-70,0-70l64-152l-62-26l-42,103l-33,27l-530-643
	c-11.2,8.6-24.2,14.8-38,18l-88-59c-5.1,5.6-12.4,8-22,7c-0.3-8.4-1-14.6-2-19l-214-87l-226,188l28,37l-91,75L93.3,279.6z"/>
<polyline class="st1" points="1305.8,799.1 1296.8,807.1 1284.8,806.1 1285.8,849.1 1378.8,847.1 "/>
<path class="st1" d="M1285.1,813.1l-14.8-0.5v51c0,0,68,1,69,1s-0.8-16.5-0.8-16.5"/>
<polygon class="st1" points="1134.3,884.6 1147.3,900.6 1255.3,811.6 1241.3,795.6 "/>
<line class="st1" x1="1185.3" y1="841.6" x2="1198.8" y2="858.1"/>
<polygon class="st1" points="1022.3,712.6 1072.3,771.6 1149.3,707.6 1100.3,647.6 "/>
<polyline class="st1" points="1072.3,771.6 1130.3,842.6 1169.3,809.6 1110.4,740.1 "/>
<polyline class="st1" points="1159.3,817.6 1163.3,822.6 1203.3,788.6 1157.3,732.1 1164.2,726.2 "/>
<polygon class="st1" points="1149.1,708 1176.3,740.6 1191.6,728 1164.9,695.5 "/>
<polygon class="st1" points="821.5,833.4 929.8,745.1 924.8,738.4 934,730.4 888.5,674.6 878,683.9 874,677.9 766.5,766.4 "/>
<polygon class="st1" points="529.4,821.8 573.8,875.8 637.1,825.1 591.8,770.1 "/>
<polyline class="st1" points="564,864 552,874.3 529.7,848 542.4,837.8 "/>
<polygon class="st1" points="577.9,877.1 587.8,889.3 626.3,857.5 616.5,845.6 "/>
<polygon class="st1" points="597.8,769 643.1,823.6 661.1,808.3 616.4,753.6 "/>
<polyline class="st1" points="661.1,808.3 679.8,793.5 674.8,787.3 711.8,757.3 709.4,755.1 720.1,747.3 711.4,736.8 717.8,732 
	687.6,695.3 616,754 "/>
<line class="st1" x1="642.8" y1="786.1" x2="714" y2="727.6"/>
<polygon class="st1" points="737.5,738.6 843,652.6 810.8,613.6 703.8,698.6 "/>
<polyline class="st1" points="843,652.6 858,670.6 808.8,711.1 793.7,692.8 "/>
<polygon class="st1" points="821.4,605.5 868,662.4 884.5,648.9 837.9,592.4 "/>
<polygon class="st1" points="901.7,666 938.2,710.6 956.9,695.4 919.8,650.6 "/>
<polygon class="st1" points="995.8,690.1 1082.4,620.1 970.8,483.5 962.4,490.8 954.1,480.1 882.6,538.4 890.9,548.9 884.7,553.6 
	894.9,566 884.5,574.1 976.3,686 986.5,677.9 "/>
<polygon class="st1" points="1069.3,596.1 1089.3,620.6 1103.5,608.6 1083.5,584.4 "/>
<polygon class="st1" points="1062.3,587.9 1076.8,576.1 987,466.4 972.8,478.1 982.6,490.2 988.6,485.5 993.9,491.6 987.6,496.5 
	1022.9,539.2 1028.7,534.2 1033.9,540.4 1027.9,545.5 "/>
<polygon class="st1" points="852.6,481.5 870.4,503.1 915.4,467.3 897.1,444.8 "/>
<polygon class="st1" points="838.4,489 907.4,432.8 904.3,428.6 912.4,421.5 915.9,425.6 930.4,414 804.9,261.5 801.1,264.6 
	760.4,215.6 717.9,251 722.9,257.3 686.4,287.1 721.4,330 715.3,335 706.6,324.6 703.3,327.5 695.3,317.6 683.3,327.1 701.8,352.3 
	706.3,349 711.3,355.1 707.3,358.6 737.6,395.1 743.4,390.6 755.1,404 749.6,409.8 820.8,496.8 835.3,485.1 "/>
<polyline class="st1" points="828,491.4 819.4,481.4 904,411.6 912.4,421.5 "/>
<polyline class="st1" points="754.9,416.1 847.4,340.3 905.5,410.4 904,411.6 "/>
<line class="st1" x1="866.2" y1="363.1" x2="879.6" y2="352.1"/>
<line class="st1" x1="888" y1="389.4" x2="901.2" y2="378.6"/>
<polyline class="st1" points="743.4,390.6 749.6,385.5 751.1,387.7 832.1,321.1 847.4,340.3 "/>
<polyline class="st1" points="711.3,355.1 800.2,282.1 832.1,321.1 844.8,310.4 "/>
<polyline class="st1" points="704.2,309 755.7,266.8 739.2,247.1 724.4,259.3 722.9,257.3 "/>
<polyline class="st1" points="751.4,222.9 774.5,251.6 755.7,266.8 774.8,289.4 783.9,281.9 774.7,270.3 777.3,268.1 "/>
<polyline class="st1" points="800.2,282.1 783.8,262.5 777.3,268.1 768.5,256.6 "/>
<polyline class="st1" points="723.4,293.2 740.9,314.1 755.9,301.7 738.8,280.6 "/>
<line class="st1" x1="801.1" y1="264.6" x2="791.9" y2="272.3"/>
<polygon class="st1" points="732.3,526 777.8,580.1 805.6,556.8 760.6,502.3 "/>
<polygon class="st1" points="644.8,601.1 650.9,609.3 653.1,607.8 689.8,652.3 736.4,613.6 743.1,622.3 767.6,602 717.3,541.1 "/>
<line class="st1" x1="763.6" y1="563.1" x2="747.3" y2="576.8"/>
<line class="st1" x1="777.8" y1="580.1" x2="760.8" y2="593.8"/>
<line class="st1" x1="736.5" y1="613.6" x2="693.4" y2="561"/>
<polyline class="st1" points="743.1,622.3 619.3,723.9 502.1,581.7 518.4,568.2 528.6,580.5 556.9,557.1 560.4,560.9 564.5,557.6 
	574.7,570.1 599,549.7 612.2,566.1 581.8,591.4 574.9,583.1 569,588 562.2,580.1 539.9,598.3 558.3,620.9 615.4,573.8 622.4,582.5 
	564.9,628.8 586.4,655 647.7,605 "/>
<line class="st1" x1="582.7" y1="614.8" x2="603.9" y2="640.9"/>
<line class="st1" x1="533.3" y1="619.4" x2="547.7" y2="607.5"/>
<polyline class="st1" points="585.8,561 592,568.3 574.9,583.1 "/>
<line class="st1" x1="562.2" y1="580.1" x2="574.3" y2="570.4"/>
<line class="st1" x1="622.4" y1="582.5" x2="643.5" y2="608.2"/>
<line class="st1" x1="586.4" y1="655" x2="633.7" y2="712.1"/>
<line class="st1" x1="588.3" y1="686.5" x2="602.4" y2="674.4"/>
<line class="st1" x1="610.2" y1="712.8" x2="624.3" y2="701"/>
<polyline class="st1" points="671.2,681.3 660.9,668.5 678.4,655 648,618.5 608.7,651 614,657.6 607,663.1 613.3,671 615.5,669.1 
	627,683.5 640.9,671.9 652,673.3 621.8,698.1 "/>
<line class="st1" x1="652" y1="673.3" x2="660.9" y2="668.5"/>
<polyline class="st1" points="665.2,639.4 635.5,664.8 640.9,671.9 "/>
<polyline class="st1" points="614,657.6 626.5,672.3 635.5,664.8 "/>
<line class="st1" x1="609.5" y1="636.1" x2="616.3" y2="644.5"/>
<line class="st1" x1="619.8" y1="627.9" x2="626.7" y2="635.9"/>
<line class="st1" x1="624.5" y1="624.2" x2="631" y2="632.6"/>
<line class="st1" x1="665.8" y1="639.8" x2="673.9" y2="633.1"/>
<line class="st1" x1="676" y1="652.5" x2="684.2" y2="645.8"/>
<line class="st1" x1="678.4" y1="655" x2="687.7" y2="667.3"/>
<line class="st1" x1="608.7" y1="651" x2="593.7" y2="664"/>
<polyline class="st1" points="648,618.5 654.2,613.1 650.9,609.3 "/>
<polygon class="st1" points="529.3,552.5 535.9,560.3 562.3,539.1 555.9,530.8 573.8,516.5 549.6,488.1 526.4,507.3 522.6,503.3 
	551.4,480.3 631.8,577.5 759.8,472.3 691.4,388.8 701.3,380.5 606.1,264.3 535.1,322.8 538.8,327.5 532.6,332.3 528.8,327.8 
	496.3,355 501.6,360.8 476.9,380.8 472.1,374.6 445.4,396 450.4,402.1 444.1,407.5 439.3,401.3 410.8,424.6 414.1,428.8 
	407.9,434.1 404.3,429.6 376.3,453.3 459.9,554.8 510.8,513.1 514.4,517.6 463.3,558.8 486.6,587.6 "/>
<line class="st1" x1="401.8" y1="484.6" x2="632.2" y2="296"/>
<line class="st1" x1="667.1" y1="338.7" x2="437.4" y2="527.5"/>
<polyline class="st1" points="551.4,480.3 565.8,467.9 562.7,463.9 686.2,362 "/>
<polyline class="st1" points="565.8,467.9 577.6,482.5 691.4,388.8 "/>
<polyline class="st1" points="608,457.6 619.3,471.4 574.5,508.5 "/>
<polyline class="st1" points="679,399.1 722.7,451.6 663.5,500.4 632,461.4 619.3,471.4 "/>
<polyline class="st1" points="632,461.4 678.4,423.1 667.2,409 "/>
<line class="st1" x1="710.8" y1="461.5" x2="678.4" y2="423.1"/>
<line class="st1" x1="642.7" y1="453.1" x2="674.3" y2="491.9"/>
<polyline class="st1" points="734.4,441.8 722.7,451.6 747.8,482.6 "/>
<polygon class="st1" points="652.1,274.5 631.9,250.3 662.4,225.3 660.8,223.3 673.3,212.8 674.9,214.8 717.4,180 737.8,204 
	697.1,237.8 689.9,229.8 676.2,241.6 682.6,249.4 "/>
<line class="st1" x1="676.2" y1="241.6" x2="662.5" y2="225.3"/>
<line class="st1" x1="676.7" y1="213.7" x2="690" y2="229.8"/>
<polygon class="st1" points="541.1,164.5 552.8,178.6 558.9,173.8 570.3,188.3 613.9,152.8 601.9,138.3 607.4,133.6 596.4,119.6 "/>
<line class="st1" x1="559" y1="173.8" x2="602" y2="138.3"/>
<polygon class="st1" points="541.2,127.1 551.5,139.4 565.8,127.9 561.5,123.5 563.7,121.6 557.7,113.8 "/>
<polygon class="st1" points="506.2,121.8 519.5,138 556.4,108 542.8,91.8 "/>
<path class="st1" d="M560.5,117.6c8.4-18,21.2-10,22.9-0.4c1.5,8.4-6.9,18.1-17.6,10.7"/>
<polygon class="st1" points="399,193.6 449,254.1 518.3,197.1 397,51.4 293.5,136.9 366.3,220.1 "/>
<polyline class="st1" points="301,130.6 293.3,120.6 389.4,42.1 397,51.4 "/>
<line class="st1" x1="399" y1="193.6" x2="467.8" y2="136.8"/>
<polygon class="st1" points="345.9,250 369.3,278.8 365.2,281.6 331.5,241 317.4,252.8 354.3,297.5 387,271.3 359.9,238.4 "/>
<line class="st1" x1="336.2" y1="275.6" x2="350.3" y2="264.1"/>
<polygon class="st1" points="38.5,386.4 73.9,428.9 51.4,447.3 64.7,463.6 97.2,437 99,438.9 103.2,435.5 123.2,460.1 134.4,461.4 
	146,475.4 188.9,440.1 180.5,430.1 184.7,422.6 176.4,412.8 162.4,424.5 150.8,410.3 146.8,413.6 141.8,407.4 145.5,404.3 
	133.9,390 136,388.4 122.5,371.6 82,405.3 55.2,373.1 "/>
<polyline class="st1" points="65.5,419.4 82,405.3 97,423.3 94.7,425.4 "/>
<polyline class="st1" points="73.9,428.9 80.9,437.3 94.7,425.4 103.2,435.5 "/>
<polygon class="st1" points="78.3,363.8 90.4,378.4 112.5,360 101,345.6 "/>
<polyline class="st1" points="122.8,317.4 110,328 121.9,342.4 206,274.3 192.5,258.3 "/>
<polygon class="st1" points="90.1,548.3 132.6,600 130.1,620.6 148.8,622 150.8,597.8 172.9,579 124.6,520.3 "/>
<polyline class="st1" points="137,535.4 117.1,552 153.1,595.8 "/>
<polygon class="st1" points="200.3,574.4 216,561.4 169.3,503.6 186,490.6 231.8,547.4 248.5,533.6 201.8,476.9 218.5,463.9 
	264.8,520.6 281.5,508.1 221,434.4 184.3,463.9 191.5,473.1 183,479.4 176,471.1 139.8,500.6 "/>
<line class="st1" x1="152.7" y1="516" x2="169.3" y2="503.6"/>
<line class="st1" x1="218.5" y1="463.9" x2="234.4" y2="450.9"/>
<line class="st1" x1="186" y1="490.6" x2="201.8" y2="476.9"/>
<polygon class="st1" points="297,493.6 344.5,455.6 341,451.4 345.3,448.1 287.8,378.9 237.8,420.6 "/>
<polyline class="st1" points="286.5,481.1 313.5,459.4 324,472.4 "/>
<polyline class="st1" points="297,472.5 290.8,465.4 297,460.4 266.8,423.4 287.7,407.1 273.9,390.5 "/>
<polyline class="st1" points="313.5,459.4 303.9,448 314.3,439.6 287.7,407.1 "/>
<line class="st1" x1="314.3" y1="439.6" x2="328.3" y2="427.8"/>
<polygon class="st1" points="478.2,863.6 489.9,877.6 502.2,867.8 497.4,861.8 505.3,855.1 498.7,846.8 "/>
<polygon class="st1" points="430.5,909.3 461.4,884.4 454.5,876.1 456.7,874.4 461.4,880.3 469.8,874 439.5,837.1 398.9,870.9 
	395.5,866.5 436.5,833.4 416.2,808.8 405.9,817.1 402.8,812.9 378.4,832.9 371.5,825 316.7,869.8 336.7,894.5 344.8,888 
	354.8,899.9 379.2,880.1 384.4,886 372,896.1 379,904.5 382.8,901.1 389.9,909.6 401.8,909.3 404.9,906.5 386.5,884 400.5,872.8 "/>
<line class="st1" x1="398.9" y1="870.9" x2="400.5" y2="872.8"/>
<line class="st1" x1="384.4" y1="886" x2="386.5" y2="884"/>
<polyline class="st1" points="454.5,876.1 442.7,861.8 453.2,853.4 "/>
<line class="st1" x1="344.8" y1="888" x2="325" y2="863.2"/>
<polyline class="st1" points="378.4,832.9 389.6,846.6 358.8,871.6 371.3,887 "/>
<line class="st1" x1="358.8" y1="871.6" x2="341.1" y2="850.1"/>
<line class="st1" x1="405.9" y1="817.1" x2="426.4" y2="841.8"/>
<line class="st1" x1="396.6" y1="818.1" x2="420.1" y2="846.4"/>
<line class="st1" x1="387" y1="848.9" x2="398.7" y2="863.9"/>
<polygon class="st1" points="336.4,840.1 365.1,816.8 348.1,796.5 351.9,793.1 335.6,772.6 331.4,776.3 314.8,756 286.4,779.3 "/>
<polyline class="st1" points="331.4,776.3 321.4,784.6 355.1,825.1 "/>
<line class="st1" x1="348.1" y1="796.5" x2="338.1" y2="804.8"/>
<line class="st1" x1="321.5" y1="784.6" x2="305" y2="764.4"/>
<polyline class="st1" points="237.4,761.5 231,753.6 241.3,744.9 236.3,738.9 313.2,675.1 303.5,663.3 226.2,726.5 224.8,724.6 
	220.2,727.9 183.4,682.9 250.8,627.9 271,652.3 287.3,639.1 253.8,598.3 170,666.5 166.9,662.5 104,714.4 110.7,722.5 70.3,756.4 
	68.2,753.6 63.8,757.4 50.7,741.1 34.2,754.5 62.9,789.1 121.9,740.7 119.9,738.5 122.1,736.8 148.8,769.4 165,756 133.5,717.3 
	168.1,689 174.6,696.9 172.5,698.8 214.5,749.8 165.5,789.8 180.4,808 237.4,761.5 269.1,799.9 285.7,786.6 278.9,778.4 
	313.6,750.1 325.3,764.2 323.2,765.7 "/>
<polyline class="st1" points="220.2,727.9 228.8,738 214.5,749.8 "/>
<line class="st1" x1="226.2" y1="726.5" x2="236.3" y2="738.9"/>
<line class="st1" x1="168.1" y1="689" x2="154.7" y2="672.5"/>
<line class="st1" x1="174.6" y1="696.9" x2="186.6" y2="686.8"/>
<line class="st1" x1="122.1" y1="736.8" x2="110.4" y2="722.4"/>
<polyline class="st1" points="310.4,694.5 319.1,686.8 323.3,691 329.1,686.1 402.4,775.6 396.3,780.6 401.6,786.8 372.8,809.8 
	314.6,739 301.6,749.5 282.4,724.8 294.4,714 291.1,710.1 310.4,694.5 302.1,684.5 "/>
<line class="st1" x1="323.3" y1="691" x2="396.3" y2="780.6"/>
<line class="st1" x1="304.5" y1="699.3" x2="386.6" y2="799.3"/>
<line class="st1" x1="278.9" y1="778.4" x2="242.3" y2="733.5"/>
<polygon class="st1" points="471.3,842.1 487.1,828.8 483.9,825 494.3,816.3 497.6,820.3 554.3,773.8 550.9,770.1 563.4,759.1 
	554.6,748.8 548.4,753.8 514.9,713.3 480.3,741.3 361.1,592 371.1,583.8 347.9,555 376.1,532.1 359.4,511.5 331.1,534.5 
	327.8,530.3 307.4,547.3 310.6,551.5 304.8,556.5 298.9,554.5 291.1,560.8 290.8,567.8 286.4,571.6 282.8,567.8 262.8,584.5 
	346,685.4 343.7,687.5 374,724.4 376.2,722.5 392.7,742.8 394.9,740.9 401.4,749.3 399.5,751.3 423,779.6 430.3,779.9 435.3,785.9 
	429.9,790.5 450,814.8 455,810.5 463.8,820.8 457.5,825.8 "/>
<line class="st1" x1="463.8" y1="820.8" x2="548.5" y2="753.8"/>
<line class="st1" x1="480.3" y1="741.3" x2="513" y2="782"/>
<line class="st1" x1="286.5" y1="571.6" x2="478.2" y2="809.5"/>
<line class="st1" x1="482.4" y1="744" x2="448.2" y2="772.1"/>
<line class="st1" x1="361.1" y1="592" x2="325.9" y2="620.4"/>
<polyline class="st1" points="302.8,591.9 327.5,571.9 350.7,600.3 "/>
<line class="st1" x1="416.5" y1="732.4" x2="399" y2="746.1"/>
<line class="st1" x1="521" y1="775.9" x2="533.2" y2="791.1"/>
<polygon class="st1" points="384.6,579.8 399.9,597.8 397.4,599.8 404.1,607.8 406.6,606 436.6,642.8 434.6,644.3 440.8,652.6 
	443.3,651 457.4,668.1 472.4,655.6 400.4,567.3 "/>
<line class="st1" x1="400" y1="597.8" x2="415.3" y2="585.6"/>
<line class="st1" x1="406.6" y1="606" x2="421.6" y2="593.1"/>
<line class="st1" x1="436.6" y1="642.8" x2="451.1" y2="629.8"/>
<line class="st1" x1="443.3" y1="651" x2="458.6" y2="639"/>
</svg>
